<svg width="147" height="66" viewBox="0 0 147 66" fill="#ffffff" xmlns="http://www.w3.org/2000/svg">
<path d="M23.1157 0C10.307 0 0 8.50578 0 24.8169C0 41.128 23.1157 65.3444 23.1157 65.3444C23.1157 65.3444 46.2314 41.128 46.2314 24.8169C46.2314 8.50578 35.8244 0 23.1157 0ZM23.1157 40.6276C13.3091 40.6276 5.40368 32.7223 5.40368 23.0157C5.40368 13.3091 13.3091 5.40368 23.1157 5.40368C32.9224 5.40368 40.8278 13.3091 40.8278 23.0157C40.8278 32.7223 32.9224 40.6276 23.1157 40.6276Z" fill="#103977"/>
<path d="M26.9201 20.1135C26.7199 20.3136 26.5198 20.6138 26.4197 20.9141C26.3197 21.1142 26.3197 21.2143 26.3197 21.4144C26.3197 21.5145 26.3197 21.6145 26.3197 21.7146C26.3197 21.8147 26.3197 21.9147 26.3197 22.0148C26.4197 22.0148 26.5198 22.0148 26.6199 22.0148C26.7199 22.0148 26.82 22.0148 26.9201 21.9147C27.1202 21.8147 27.2203 21.8147 27.4204 21.7146C27.7206 21.5145 27.9207 21.3143 28.1209 21.1142C28.321 20.9141 28.5212 20.6138 28.6212 20.3136C28.7213 20.1135 28.7213 20.0134 28.7213 19.8133C28.7213 19.7132 28.7213 19.6132 28.7213 19.5131C28.7213 19.413 28.7213 19.313 28.7213 19.2129C28.6212 19.2129 28.5212 19.2129 28.4211 19.2129C28.321 19.2129 28.221 19.2129 28.1209 19.313C27.9207 19.413 27.8207 19.413 27.6205 19.5131C27.4204 19.7132 27.1202 19.9134 26.9201 20.1135Z" fill="#0796D6"/>
<path d="M26.2198 16.1107C26.2198 16.2108 26.2198 16.3109 26.2198 16.4109C26.2198 16.511 26.2198 16.6111 26.3199 16.7111C26.4199 16.7111 26.52 16.6111 26.6201 16.6111C26.7201 16.6111 26.8202 16.511 26.8202 16.511C26.9203 16.4109 27.1204 16.3109 27.2205 16.2108C27.4206 16.0107 27.6207 15.7105 27.7208 15.4103C27.8209 15.1101 27.9209 14.8099 28.021 14.5096C28.021 14.3095 28.021 14.2094 28.021 14.0093C28.021 13.9092 28.021 13.8092 28.021 13.7091C28.021 13.609 28.021 13.509 27.9209 13.4089C27.8209 13.4089 27.7208 13.509 27.6207 13.509C27.5207 13.509 27.4206 13.609 27.4206 13.609C27.3205 13.7091 27.1204 13.8092 27.0203 13.9092C26.8202 14.1094 26.6201 14.4096 26.52 14.7098C26.4199 15.01 26.3199 15.3102 26.2198 15.6104C26.1197 15.7105 26.1197 15.9106 26.2198 16.1107Z" fill="#0796D6"/>
<path d="M26.7197 19.5131C26.8198 19.413 27.0199 19.3129 27.12 19.2128C27.3201 19.0127 27.5203 18.7125 27.6203 18.4123C27.7204 18.1121 27.8205 17.8119 27.8205 17.5117C27.8205 17.3116 27.8205 17.2115 27.8205 17.0114C27.8205 16.9113 27.8205 16.8112 27.8205 16.7111C27.8205 16.6111 27.8205 16.511 27.7204 16.4109C27.6203 16.4109 27.5203 16.511 27.4202 16.511C27.3201 16.511 27.2201 16.6111 27.2201 16.7111C27.12 16.8112 26.9199 16.9113 26.8198 17.0114C26.6197 17.2115 26.4195 17.5117 26.3195 17.8119C26.2194 18.1121 26.1193 18.4123 26.1193 18.7125C26.1193 18.9126 26.1193 19.0127 26.1193 19.2128C26.1193 19.3129 26.1193 19.413 26.1193 19.5131C26.1193 19.6131 26.1193 19.7132 26.2194 19.8133C26.3195 19.8133 26.4195 19.7132 26.5196 19.7132C26.6197 19.6131 26.7197 19.6131 26.7197 19.5131Z" fill="#0796D6"/>
<path d="M25.0194 13.609C25.0194 13.7091 25.1194 13.8091 25.1194 13.9092C25.1194 14.0093 25.2195 14.1094 25.3196 14.2094C25.4196 14.1094 25.5197 14.1094 25.5197 14.0093C25.6198 13.9092 25.6198 13.9092 25.7198 13.8091C25.8199 13.7091 25.92 13.5089 26.02 13.4089C26.1201 13.1087 26.2202 12.8085 26.3202 12.5083C26.3202 12.2081 26.3202 11.9079 26.3202 11.6077C26.3202 11.4075 26.2202 11.3074 26.2202 11.1073C26.2202 11.0072 26.1201 10.9072 26.1201 10.8071C26.1201 10.707 26.02 10.607 25.92 10.5069C25.8199 10.607 25.7198 10.607 25.7198 10.707C25.6198 10.8071 25.6198 10.8071 25.5197 10.9072C25.4196 11.0072 25.3196 11.2074 25.2195 11.3074C25.1194 11.6077 25.0194 11.9079 24.9193 12.2081C24.9193 12.5083 24.9193 12.8085 24.9193 13.1087C24.9193 13.2087 24.9193 13.4089 25.0194 13.609Z" fill="#0796D6"/>
<path d="M28.9212 18.6125C29.0213 18.6125 29.1214 18.5124 29.2214 18.5124C29.4216 18.4124 29.5216 18.3123 29.6217 18.2122C29.9219 18.0121 30.122 17.812 30.3222 17.5118C30.5223 17.2116 30.6224 17.0114 30.7225 16.7112C30.7225 16.5111 30.8225 16.411 30.8225 16.2109C30.8225 16.1108 30.8225 16.0107 30.8225 15.9107C30.8225 15.8106 30.8225 15.7105 30.8225 15.6105C30.7225 15.6105 30.6224 15.6105 30.5223 15.7105C30.4223 15.7105 30.3222 15.8106 30.2221 15.8106C30.022 15.9107 29.9219 16.0107 29.8218 16.1108C29.5216 16.3109 29.3215 16.5111 29.1214 16.8113C28.9212 17.1115 28.8212 17.3116 28.7211 17.6118C28.7211 17.812 28.621 17.912 28.621 18.1122C28.621 18.2122 28.621 18.3123 28.621 18.4124C28.621 18.5124 28.621 18.6125 28.621 18.7126C28.7211 18.6125 28.8212 18.6125 28.9212 18.6125Z" fill="#0796D6"/>
<path d="M23.1181 27.4184C24.3189 27.4184 25.3196 26.4177 25.3196 25.2169C25.3196 24.0161 24.3189 23.0154 23.1181 23.0154C21.9173 23.0154 20.9166 24.0161 20.9166 25.2169C20.9166 26.4177 21.9173 27.4184 23.1181 27.4184Z" fill="#0796D6"/>
<path d="M24.1184 18.2122C24.1184 18.3123 24.2184 18.4124 24.2184 18.5124C24.2184 18.6125 24.3185 18.7126 24.3185 18.8126C24.4186 18.7126 24.5186 18.7126 24.5186 18.6125C24.6187 18.5124 24.6187 18.5124 24.7188 18.4124C24.8188 18.3123 24.9189 18.1122 25.019 18.0121C25.2191 17.7119 25.3192 17.4117 25.4192 17.1115C25.5193 16.8113 25.5193 16.5111 25.5193 16.2109C25.5193 16.0107 25.5193 15.9107 25.4192 15.7105C25.4192 15.6105 25.3192 15.5104 25.3192 15.4103C25.3192 15.3103 25.2191 15.2102 25.2191 15.1101C25.119 15.2102 25.019 15.2102 25.019 15.3103C24.9189 15.4103 24.9189 15.4103 24.8188 15.5104C24.7188 15.6105 24.6187 15.8106 24.5186 15.9107C24.3185 16.2109 24.2184 16.5111 24.1184 16.8113C24.0183 17.0114 24.0183 17.4117 24.0183 17.7119C24.0183 17.812 24.1184 18.0121 24.1184 18.2122Z" fill="#0796D6"/>
<path d="M25.7191 20.2136C25.7191 20.0135 25.7191 19.9134 25.619 19.7133C25.619 19.6132 25.619 19.5131 25.5189 19.4131C25.5189 19.313 25.4188 19.2129 25.4188 19.1129C25.3188 19.1129 25.2187 19.2129 25.1186 19.313C25.0186 19.4131 25.0186 19.4131 24.9185 19.5131C24.8184 19.6132 24.7184 19.7133 24.6183 19.9134C24.4182 20.2136 24.3181 20.4137 24.218 20.7139C24.118 21.0141 24.118 21.3143 24.118 21.6146C24.118 21.8147 24.118 21.9148 24.218 22.1149C24.218 22.215 24.218 22.315 24.3181 22.4151C24.3181 22.5152 24.4182 22.6152 24.4182 22.7153C24.5182 22.7153 24.6183 22.6152 24.7184 22.5152C24.8184 22.4151 24.8184 22.4151 24.9185 22.315C25.0186 22.215 25.1186 22.1149 25.2187 21.9148C25.4189 21.6146 25.5189 21.4144 25.619 21.1142C25.7191 20.9141 25.7191 20.6139 25.7191 20.2136Z" fill="#0796D6"/>
<path d="M28.7211 15.4103C28.8212 15.4103 28.9212 15.3102 29.0213 15.3102C29.1214 15.3102 29.2214 15.2102 29.2214 15.2102C29.4216 15.1101 29.5216 15.01 29.6217 14.91C29.8218 14.7098 30.022 14.4096 30.2221 14.2095C30.4223 13.9093 30.5223 13.6091 30.5223 13.3089C30.5223 13.1087 30.6224 13.0087 30.6224 12.8085C30.6224 12.7085 30.6224 12.6084 30.6224 12.5083C30.6224 12.4083 30.6224 12.3082 30.5223 12.2081C30.4223 12.2081 30.3222 12.3082 30.2221 12.3082C30.122 12.3082 30.022 12.4083 30.022 12.4083C29.8218 12.5083 29.7218 12.6084 29.6217 12.7085C29.4216 12.9086 29.2214 13.2088 29.0213 13.4089C28.8212 13.7092 28.7211 14.0094 28.7211 14.3096C28.7211 14.5097 28.621 14.6098 28.621 14.8099C28.621 14.91 28.621 15.01 28.621 15.1101C28.7211 15.2102 28.7211 15.3102 28.7211 15.4103Z" fill="#0796D6"/>
<path d="M20.616 19.7133C20.616 19.9134 20.5159 20.0135 20.5159 20.2136C20.5159 20.5138 20.5159 20.814 20.616 21.1142C20.716 21.4144 20.8161 21.7146 21.0162 21.9148C21.1163 22.0148 21.2164 22.215 21.3164 22.315C21.4165 22.4151 21.4165 22.4151 21.5166 22.5152C21.6167 22.6152 21.7167 22.6152 21.8168 22.7153C21.9169 22.6152 21.9169 22.5152 21.9169 22.4151C21.9169 22.315 22.0169 22.215 22.0169 22.1149C22.0169 21.9148 22.117 21.8147 22.117 21.6146C22.117 21.3143 22.117 21.0141 22.0169 20.7139C21.9169 20.4137 21.8168 20.1135 21.6167 19.9134C21.5166 19.8133 21.4165 19.6132 21.3164 19.5131C21.2164 19.4131 21.2164 19.4131 21.1163 19.313C21.0162 19.2129 20.9162 19.2129 20.8161 19.1129C20.716 19.2129 20.716 19.313 20.716 19.4131C20.616 19.6132 20.616 19.6132 20.616 19.7133Z" fill="#0796D6"/>
<path d="M31.4229 23.5158C31.523 23.4158 31.7231 23.3157 31.8232 23.2156C31.9233 23.1156 31.9233 23.1156 32.0233 23.0155C32.1234 22.9154 32.1234 22.9154 32.2235 22.8154C32.1234 22.8154 32.0233 22.7153 31.9233 22.7153C31.8232 22.7153 31.7231 22.7153 31.6231 22.6152C31.4229 22.6152 31.3229 22.6152 31.1227 22.6152C30.8225 22.6152 30.5223 22.7153 30.2221 22.8154C29.9219 22.9154 29.6217 23.0155 29.4216 23.2156C29.3215 23.3157 29.1214 23.4158 29.0213 23.5158C28.9212 23.6159 28.9212 23.6159 28.8212 23.716C28.7211 23.8161 28.7211 23.8161 28.621 23.9161C28.7211 23.9161 28.8212 24.0162 28.9212 24.0162C29.0213 24.0162 29.1214 24.0162 29.2214 24.1163C29.4216 24.1163 29.5216 24.1163 29.7218 24.1163C30.022 24.1163 30.3222 24.0162 30.6224 23.9161C30.9226 23.8161 31.1227 23.716 31.4229 23.5158Z" fill="#0796D6"/>
<path d="M31.3235 22.0147C31.6237 21.9147 31.9239 21.8146 32.2241 21.6145C32.5243 21.4143 32.7244 21.2142 32.9245 21.014C33.0246 20.914 33.1247 20.7138 33.2247 20.6138C33.2247 20.5137 33.3248 20.4136 33.3248 20.3136C33.3248 20.2135 33.4249 20.1134 33.4249 20.0134C33.3248 20.0134 33.2247 20.0134 33.1247 20.0134C33.0246 20.0134 32.9245 20.0134 32.8245 20.0134C32.6243 20.0134 32.5243 20.0134 32.3241 20.1134C32.0239 20.2135 31.7237 20.3136 31.4235 20.5137C31.1233 20.7138 30.9232 20.914 30.723 21.1141C30.623 21.2142 30.5229 21.4143 30.4228 21.5144C30.4228 21.6145 30.3228 21.7145 30.3228 21.8146C30.3228 21.9147 30.2227 22.0147 30.2227 22.1148C30.3228 22.1148 30.4228 22.1148 30.5229 22.1148C30.623 22.1148 30.723 22.1148 30.8231 22.1148C31.0232 22.1148 31.1233 22.1148 31.3235 22.0147Z" fill="#0796D6"/>
<path d="M27.6207 23.716C27.9209 23.6159 28.2211 23.5158 28.4213 23.3157C28.7215 23.1156 28.9216 22.9154 29.1218 22.6152C29.2218 22.5152 29.3219 22.315 29.422 22.215C29.422 22.1149 29.522 22.0148 29.522 21.9148C29.522 21.8147 29.6221 21.7146 29.6221 21.6146C29.522 21.6146 29.422 21.6146 29.3219 21.6146C29.2218 21.6146 29.1218 21.6146 29.0217 21.6146C28.8216 21.6146 28.7215 21.7146 28.5214 21.7146C28.2211 21.8147 27.9209 21.9148 27.7208 22.1149C27.4206 22.315 27.2205 22.5152 27.0203 22.8154C26.9203 22.9154 26.8202 23.1156 26.7201 23.2156C26.7201 23.3157 26.6201 23.4158 26.6201 23.5158C26.6201 23.6159 26.52 23.716 26.52 23.816C26.6201 23.816 26.7201 23.816 26.8202 23.816C26.9203 23.816 27.0203 23.816 27.1204 23.816C27.3205 23.816 27.4206 23.8161 27.6207 23.716Z" fill="#0796D6"/>
<path d="M32.1238 24.8167C32.3239 24.8167 32.424 24.9167 32.6241 24.9167C32.9243 24.9167 33.2245 24.9167 33.5248 24.8167C33.825 24.7166 34.1252 24.6165 34.4254 24.4164C34.5254 24.3163 34.7256 24.2163 34.8256 24.1162C34.9257 24.0161 34.9257 24.0161 35.0258 23.916C35.1258 23.816 35.1258 23.7159 35.2259 23.7159C35.1258 23.6158 35.0258 23.6158 34.9257 23.6158C34.8256 23.6158 34.7256 23.5158 34.6255 23.5158C34.4254 23.5158 34.3253 23.4157 34.1252 23.4157C33.825 23.4157 33.5248 23.4157 33.2246 23.5158C32.9243 23.6158 32.6241 23.7159 32.3239 23.916C32.2239 24.0161 32.0237 24.1162 31.9237 24.2163C31.8236 24.3163 31.8236 24.3163 31.7235 24.4164C31.6235 24.5165 31.6235 24.6165 31.5234 24.6165C31.6235 24.7166 31.7235 24.7166 31.8236 24.7166C31.9237 24.8167 32.0237 24.8167 32.1238 24.8167Z" fill="#0796D6"/>
<path d="M36.527 22.415C36.4269 22.5151 36.2268 22.6151 36.1267 22.7152C36.0266 22.8153 36.0267 22.8153 35.9266 22.9153C35.8265 23.0154 35.8265 23.1155 35.7264 23.1155C35.8265 23.2155 35.9266 23.2155 36.0266 23.2155C36.1267 23.2155 36.2268 23.3156 36.3269 23.3156C36.527 23.4157 36.6271 23.4157 36.8272 23.4157C37.1274 23.4157 37.4276 23.4157 37.7278 23.3156C38.028 23.2155 38.3282 23.1155 38.6284 22.9153C38.7285 22.8153 38.9286 22.7152 39.0287 22.6151C39.1288 22.5151 39.1288 22.5151 39.2288 22.415C39.3289 22.3149 39.3289 22.3149 39.429 22.2149C39.3289 22.1148 39.2288 22.1148 39.1288 22.1148C39.0287 22.1148 38.9286 22.0147 38.8286 22.0147C38.6284 22.0147 38.5284 22.0147 38.3282 22.0147C38.028 22.0147 37.7278 22.0147 37.4276 22.1148C37.0273 22.1148 36.8272 22.2149 36.527 22.415Z" fill="#0796D6"/>
<path d="M32.6243 17.912C32.4242 18.1121 32.2241 18.3123 32.0239 18.6125C31.9239 18.7125 31.8238 18.9127 31.8238 19.1128C31.8238 19.2129 31.7237 19.3129 31.7237 19.413C31.7237 19.5131 31.7237 19.6131 31.7237 19.7132C31.8238 19.7132 31.9239 19.7132 32.0239 19.7132C32.124 19.7132 32.2241 19.7132 32.3241 19.7132C32.5243 19.7132 32.6243 19.6131 32.8245 19.6131C33.1247 19.5131 33.4249 19.3129 33.625 19.1128C33.8252 18.9127 34.0253 18.7125 34.2254 18.4123C34.3255 18.3123 34.4256 18.1121 34.4256 17.912C34.4256 17.8119 34.5256 17.7119 34.5256 17.6118C34.5256 17.5117 34.5256 17.4116 34.5256 17.3116C34.4256 17.3116 34.3255 17.3116 34.2254 17.3116C34.1254 17.3116 34.0253 17.3116 33.9252 17.3116C33.7251 17.3116 33.625 17.4116 33.4249 17.5117C33.1247 17.5117 32.9245 17.7119 32.6243 17.912Z" fill="#0796D6"/>
<path d="M35.8259 21.5144C35.926 21.4144 35.926 21.4144 36.0261 21.3143C36.1261 21.2142 36.1261 21.1142 36.1261 21.0141C36.0261 21.0141 35.926 20.914 35.8259 20.914C35.7259 20.914 35.6258 20.914 35.5257 20.814C35.3256 20.814 35.2255 20.814 35.0254 20.814C34.7252 20.814 34.425 20.914 34.1248 21.0141C33.8246 21.1142 33.5244 21.3143 33.3242 21.5144C33.2242 21.6145 33.1241 21.7146 32.924 21.9147C32.8239 22.0148 32.8239 22.0148 32.7238 22.1148C32.6238 22.2149 32.6238 22.315 32.6238 22.415C32.7238 22.415 32.8239 22.5151 32.924 22.5151C33.024 22.5151 33.1241 22.5151 33.2242 22.6152C33.4243 22.6152 33.5244 22.6152 33.7245 22.6152C34.0247 22.6152 34.3249 22.5151 34.6251 22.415C34.9253 22.315 35.2255 22.1148 35.4257 21.9147C35.5257 21.7146 35.7259 21.6145 35.8259 21.5144Z" fill="#0796D6"/>
<path d="M30.323 18.5124C30.0228 18.7126 29.8226 18.9127 29.6225 19.1128C29.4224 19.313 29.2222 19.6132 29.1222 19.9134C29.0221 20.0134 29.0221 20.2136 28.922 20.4137C28.922 20.5138 28.922 20.6138 28.922 20.7139C28.922 20.814 28.922 20.9141 28.922 21.0141C29.0221 21.0141 29.1222 21.0141 29.2222 21.0141C29.3223 21.0141 29.4224 21.0141 29.5224 20.9141C29.7226 20.814 29.8226 20.814 30.0228 20.7139C30.323 20.5138 30.5231 20.3136 30.7232 20.1135C30.9234 19.9134 31.1235 19.6132 31.2236 19.313C31.3236 19.1128 31.3236 19.0128 31.4237 18.8126C31.4237 18.7126 31.4237 18.6125 31.4237 18.5124C31.4237 18.4124 31.4237 18.3123 31.4237 18.2122C31.3236 18.2122 31.2236 18.2122 31.1235 18.2122C31.0234 18.2122 30.9234 18.2122 30.8233 18.3123C30.6232 18.4123 30.5231 18.4124 30.323 18.5124Z" fill="#0796D6"/>
<path d="M31.7239 17.3115C31.824 17.3115 31.9241 17.2115 32.0241 17.2115C32.2243 17.1114 32.3243 17.1114 32.5245 17.0113C32.8247 16.8112 33.0248 16.6111 33.2249 16.4109C33.4251 16.2108 33.6252 15.9106 33.7253 15.6104C33.8253 15.4102 33.8253 15.3102 33.8253 15.11C33.8253 15.01 33.8253 14.9099 33.8253 14.8098C33.8253 14.7098 33.8253 14.6097 33.8253 14.5096C33.7253 14.5096 33.6252 14.5096 33.5251 14.6097C33.4251 14.6097 33.325 14.7098 33.2249 14.7098C33.0248 14.8098 32.9247 14.8098 32.7246 14.9099C32.4244 15.11 32.2243 15.3102 32.0241 15.5103C31.824 15.7104 31.6239 16.0106 31.5238 16.3108C31.4237 16.511 31.4237 16.6111 31.4237 16.8112C31.4237 16.9113 31.4237 17.0113 31.4237 17.1114C31.4237 17.2115 31.4237 17.3115 31.4237 17.4116C31.5238 17.3115 31.6239 17.3115 31.7239 17.3115Z" fill="#0796D6"/>
<path d="M34.3255 19.6131C34.3255 19.7132 34.2254 19.8132 34.2254 19.9133C34.3255 19.9133 34.4256 19.9133 34.5256 20.0134C34.6257 20.0134 34.7258 20.0134 34.8258 20.0134C35.026 20.0134 35.126 20.0134 35.3262 19.9133C35.6264 19.8132 35.9266 19.7132 36.2268 19.6131C36.527 19.413 36.7271 19.2128 36.9273 19.0127C37.0273 18.9126 37.1274 18.7125 37.2275 18.6124C37.2275 18.5123 37.3275 18.4123 37.3275 18.4123C37.3275 18.3122 37.4276 18.2121 37.4276 18.1121C37.3275 18.1121 37.2275 18.1121 37.1274 18.012C37.0273 18.012 36.9273 18.012 36.8272 18.012C36.6271 18.012 36.527 18.012 36.3269 18.1121C36.0266 18.2121 35.7264 18.3122 35.4262 18.4123C35.126 18.6124 34.9259 18.8126 34.7258 19.0127C34.6257 19.1128 34.5256 19.3129 34.4256 19.413C34.3255 19.513 34.3255 19.513 34.3255 19.6131Z" fill="#0796D6"/>
<path d="M27.2201 25.9174C27.4202 26.0175 27.5203 26.0175 27.7204 26.0175C28.0206 26.1175 28.3208 26.1175 28.621 26.0175C28.9212 26.0175 29.2214 25.9174 29.5216 25.7173C29.6217 25.6172 29.8218 25.5171 29.9219 25.4171C30.022 25.317 30.022 25.317 30.122 25.2169C30.2221 25.1169 30.2221 25.1169 30.3222 25.0168C30.2221 24.9167 30.122 24.9167 30.022 24.8167C29.9219 24.8167 29.8218 24.7166 29.7218 24.7166C29.5216 24.6165 29.4216 24.6165 29.2214 24.6165C28.9212 24.5165 28.621 24.5165 28.3208 24.6165C28.0206 24.6165 27.7204 24.7166 27.4202 24.9167C27.3201 25.0168 27.12 25.1169 27.0199 25.2169C26.9199 25.317 26.9199 25.317 26.8198 25.4171C26.7197 25.5171 26.7197 25.5171 26.6197 25.6172C26.7197 25.7173 26.8198 25.7173 26.9199 25.8173C27.12 25.8173 27.2201 25.9174 27.2201 25.9174Z" fill="#0796D6"/>
<path d="M12.5105 15.01C12.5105 15.2101 12.6105 15.3102 12.6105 15.5103C12.7106 15.8105 12.9107 16.1107 13.1109 16.3109C13.311 16.511 13.5111 16.8112 13.8113 16.9113C13.9114 17.0113 14.1116 17.1114 14.3117 17.1114C14.4118 17.1114 14.5118 17.2115 14.6119 17.2115C14.712 17.2115 14.812 17.2115 14.9121 17.3116C14.9121 17.2115 14.9121 17.1114 14.9121 17.0114C14.9121 16.9113 14.9121 16.8112 14.9121 16.7111C14.9121 16.511 14.812 16.4109 14.812 16.2108C14.712 15.9106 14.5118 15.6104 14.3117 15.4103C14.1116 15.2101 13.9114 14.9099 13.6112 14.8099C13.5111 14.7098 13.311 14.6097 13.1109 14.6097C13.0108 14.6097 12.9107 14.5096 12.8107 14.5096C12.7106 14.5096 12.6105 14.5096 12.5105 14.4096C12.5105 14.5096 12.5105 14.6097 12.5105 14.7098C12.5105 14.8099 12.5105 14.9099 12.5105 15.01Z" fill="#0796D6"/>
<path d="M19.7156 23.5158C19.7156 23.4158 19.6155 23.3157 19.6155 23.2156C19.5154 23.0155 19.4154 22.9154 19.3153 22.8154C19.1151 22.5152 18.915 22.315 18.6148 22.1149C18.3146 21.9148 18.1145 21.8147 17.8143 21.7146C17.6141 21.7146 17.5141 21.6146 17.3139 21.6146C17.2139 21.6146 17.1138 21.6146 17.0137 21.6146C16.9137 21.6146 16.8136 21.6146 16.7135 21.6146C16.7135 21.7146 16.7135 21.8147 16.8136 21.9148C16.8136 22.0148 16.9137 22.1149 16.9137 22.215C17.0137 22.4151 17.1138 22.5152 17.2139 22.6152C17.414 22.9154 17.6141 23.1156 17.9143 23.3157C18.2145 23.5158 18.4147 23.6159 18.7149 23.716C18.915 23.716 19.0151 23.816 19.2152 23.816C19.3153 23.816 19.4154 23.816 19.5154 23.816C19.6155 23.816 19.7156 23.816 19.8156 23.816C19.7156 23.716 19.7156 23.6159 19.7156 23.5158Z" fill="#0796D6"/>
<path d="M13.4109 20.0134C13.3108 20.0134 13.2107 20.0134 13.1107 20.0134C13.0106 20.0134 12.9105 20.0134 12.8105 20.0134C12.8105 20.1134 12.9105 20.2135 12.9105 20.3136C12.9105 20.4136 13.0106 20.5137 13.0106 20.6138C13.1107 20.8139 13.2107 20.914 13.3108 21.014C13.5109 21.3143 13.7111 21.5144 14.0113 21.6145C14.3115 21.8146 14.5116 21.9147 14.9119 22.0147C15.112 22.0147 15.2121 22.1148 15.4122 22.1148C15.5123 22.1148 15.6124 22.1148 15.7124 22.1148C15.8125 22.1148 15.9126 22.1148 16.0126 22.1148C16.0126 22.0147 15.9126 21.9147 15.9126 21.8146C15.9126 21.7145 15.8125 21.6145 15.8125 21.5144C15.7124 21.3143 15.6124 21.2142 15.5123 21.1141C15.3122 20.8139 15.112 20.6138 14.8118 20.5137C14.5116 20.3136 14.2114 20.2135 13.9112 20.1134C13.8112 20.1134 13.611 20.0134 13.4109 20.0134Z" fill="#0796D6"/>
<path d="M15.5129 16.7112C15.613 17.0114 15.713 17.3116 15.9132 17.5118C16.1133 17.812 16.3134 18.0121 16.6136 18.2122C16.7137 18.3123 16.9138 18.4124 17.0139 18.5124C17.114 18.5124 17.2141 18.6125 17.3141 18.6125C17.4142 18.6125 17.5143 18.7126 17.6143 18.7126C17.6143 18.6125 17.6143 18.5124 17.6143 18.4124C17.6143 18.3123 17.6143 18.2122 17.6143 18.1122C17.6143 17.912 17.5143 17.812 17.5143 17.6118C17.4142 17.3116 17.3141 17.0114 17.114 16.8113C16.9138 16.5111 16.7137 16.3109 16.4135 16.1108C16.3134 16.0107 16.1133 15.9107 16.0132 15.8106C15.9132 15.8106 15.8131 15.7105 15.713 15.7105C15.613 15.7105 15.5129 15.6105 15.4128 15.6105C15.4128 15.7105 15.4128 15.8106 15.4128 15.9107C15.4128 16.0107 15.4128 16.1108 15.4128 16.2109C15.4128 16.411 15.5129 16.5111 15.5129 16.7112Z" fill="#0796D6"/>
<path d="M23.4177 17.8119C23.4177 17.7118 23.3176 17.6118 23.2175 17.6118C23.1175 17.5117 23.1175 17.4116 23.0174 17.4116C22.9173 17.5117 22.9173 17.6118 22.8173 17.6118C22.7172 17.7118 22.7172 17.8119 22.7172 17.8119C22.6171 18.012 22.5171 18.1121 22.5171 18.3122C22.417 18.6124 22.3169 18.9126 22.3169 19.2128C22.3169 19.5131 22.3169 19.8133 22.5171 20.1135C22.6171 20.3136 22.6171 20.4137 22.7172 20.6138C22.7172 20.7139 22.8173 20.8139 22.8173 20.8139C23.0174 20.914 23.0174 21.0141 23.1175 21.0141C23.2175 20.914 23.2175 20.8139 23.3176 20.8139C23.4177 20.7139 23.4177 20.6138 23.5178 20.6138C23.6178 20.4137 23.7179 20.3136 23.7179 20.1135C23.818 19.8133 23.918 19.5131 23.918 19.2128C23.918 18.9126 23.918 18.6124 23.7179 18.3122C23.6178 18.1121 23.5178 17.912 23.4177 17.8119Z" fill="#0796D6"/>
<path d="M14.9125 18.8126C14.9125 19.0128 15.0126 19.1128 15.1126 19.313C15.2127 19.6132 15.4128 19.9134 15.613 20.1135C15.8131 20.3136 16.0132 20.5138 16.3134 20.7139C16.4135 20.814 16.6136 20.9141 16.8138 20.9141C16.9138 20.9141 17.0139 21.0141 17.114 21.0141C17.2141 21.0141 17.3141 21.0141 17.4142 21.0141C17.4142 20.9141 17.4142 20.814 17.4142 20.7139C17.4142 20.6138 17.4142 20.5138 17.4142 20.4137C17.4142 20.2136 17.3141 20.1135 17.2141 19.9134C17.114 19.6132 16.9138 19.313 16.7137 19.1128C16.5136 18.9127 16.3134 18.7126 16.0132 18.5124C15.9132 18.4124 15.713 18.3123 15.5129 18.3123C15.4128 18.3123 15.3128 18.2122 15.2127 18.2122C15.1126 18.2122 15.0126 18.2122 14.9125 18.2122C14.9125 18.3123 14.9125 18.4124 14.9125 18.5124C14.9125 18.6125 14.9125 18.7126 14.9125 18.8126Z" fill="#0796D6"/>
<path d="M11.9099 17.7118C12.0099 17.9119 12.0099 18.012 12.11 18.2121C12.3101 18.5123 12.5103 18.7125 12.7104 18.9126C12.9105 19.1128 13.2107 19.3129 13.5109 19.413C13.7111 19.513 13.8112 19.513 14.0113 19.513C14.1114 19.513 14.2114 19.513 14.3115 19.513C14.4116 19.513 14.5116 19.513 14.6117 19.513C14.6117 19.413 14.6117 19.3129 14.6117 19.2128C14.6117 19.1128 14.6117 19.0127 14.5116 18.9126C14.4116 18.7125 14.4116 18.6124 14.3115 18.4123C14.1114 18.1121 13.9112 17.9119 13.7111 17.7118C13.5109 17.5117 13.2107 17.3115 12.9105 17.2115C12.7104 17.1114 12.6103 17.1114 12.4102 17.0113C12.3101 17.0113 12.2101 17.0113 12.11 17.0113C12.0099 17.0113 11.9099 17.0113 11.8098 17.0113C11.8098 17.1114 11.8098 17.2115 11.8098 17.3115C11.8098 17.6117 11.8098 17.7118 11.9099 17.7118Z" fill="#0796D6"/>
<path d="M23.1173 28.1189C22.0165 26.7179 16.0125 28.1189 6.60606 23.5157C11.8096 27.9187 17.0131 28.4191 19.9151 28.9194C21.4161 29.2196 21.1159 35.2237 20.3154 35.624H23.0172H25.7191C24.9185 35.2237 24.6183 29.1196 26.1193 28.9194C29.1214 28.4191 34.2248 27.8187 39.4284 23.5157C30.2221 28.1189 24.218 26.7179 23.1173 28.1189Z" fill="#0796D6"/>
<path d="M7.30673 22.8153C7.4068 22.9154 7.60693 23.0154 7.707 23.1155C8.0072 23.3156 8.30741 23.4157 8.60761 23.5158C8.90782 23.6158 9.20802 23.6158 9.50822 23.6158C9.70836 23.6158 9.80843 23.5158 10.0086 23.5158C10.1086 23.5158 10.2087 23.4157 10.3088 23.4157C10.4088 23.4157 10.5089 23.3156 10.609 23.3156C10.5089 23.2156 10.5089 23.1155 10.4088 23.1155C10.3088 23.0154 10.3088 23.0154 10.2087 22.9154C10.1086 22.8153 9.9085 22.7152 9.80843 22.6152C9.50822 22.415 9.20802 22.315 8.90782 22.315C8.50754 22.0148 8.20734 21.9147 7.90714 22.0148C7.707 22.0148 7.60693 22.1148 7.4068 22.1148C7.30673 22.1148 7.20666 22.2149 7.10659 22.2149C7.00652 22.2149 6.90645 22.315 6.80639 22.315C6.90645 22.415 6.90645 22.5151 7.00652 22.5151C7.10659 22.6152 7.20666 22.7152 7.30673 22.8153Z" fill="#0796D6"/>
<path d="M9.00788 18.6124C9.10795 18.8126 9.20802 18.9126 9.30809 19.0127C9.50822 19.2128 9.80843 19.413 10.0086 19.6131C10.3088 19.8132 10.609 19.9133 10.9092 19.9133C11.1093 19.9133 11.2094 20.0134 11.4095 20.0134C11.5096 20.0134 11.6097 20.0134 11.7097 20.0134C11.8098 20.0134 11.9099 20.0134 12.0099 19.9133C12.0099 19.8132 11.9099 19.7132 11.9099 19.6131C11.9099 19.513 11.8098 19.413 11.8098 19.413C11.7097 19.2128 11.6097 19.1128 11.5096 19.0127C11.3094 18.8126 11.0092 18.6124 10.8091 18.4123C10.5089 18.2121 10.2087 18.1121 9.9085 18.1121C9.70836 18.1121 9.60829 18.1121 9.40816 18.012C9.30809 18.012 9.20802 18.012 9.10795 18.012C9.00788 18.012 8.90782 18.012 8.80775 18.012C8.80775 18.1121 8.90782 18.2121 8.90782 18.3122C8.90782 18.4123 9.00788 18.5123 9.00788 18.6124Z" fill="#0796D6"/>
<path d="M15.9128 14.2095C16.1129 14.5097 16.313 14.7098 16.5132 14.91C16.6133 15.01 16.8134 15.1101 16.9135 15.2102C17.0135 15.2102 17.1136 15.3102 17.1136 15.3102C17.2137 15.3102 17.3137 15.4103 17.4138 15.4103C17.4138 15.3102 17.4138 15.2102 17.5139 15.1101C17.5139 15.01 17.5139 14.91 17.5139 14.8099C17.5139 14.6098 17.5139 14.5097 17.4138 14.3096C17.3137 14.0094 17.2137 13.7092 17.1136 13.4089C16.9135 13.1087 16.7133 12.9086 16.5132 12.7085C16.4131 12.6084 16.213 12.5083 16.1129 12.4083C16.0128 12.4083 15.9128 12.3082 15.9128 12.3082C15.8127 12.3082 15.7126 12.2081 15.6126 12.2081C15.6126 12.3082 15.6126 12.4083 15.5125 12.5083C15.5125 12.6084 15.5125 12.7085 15.5125 12.8085C15.5125 13.0087 15.5125 13.1087 15.6126 13.3089C15.6126 13.6091 15.7126 13.9093 15.9128 14.2095Z" fill="#0796D6"/>
<path d="M19.3149 17.0114C19.2148 16.9113 19.1148 16.8112 18.9146 16.7111C18.8146 16.6111 18.7145 16.6111 18.7145 16.511C18.6144 16.511 18.5143 16.4109 18.4143 16.4109C18.4143 16.511 18.3142 16.6111 18.3142 16.7111C18.3142 16.8112 18.3142 16.9113 18.3142 17.0114C18.3142 17.2115 18.3142 17.3116 18.3142 17.5117C18.3142 17.8119 18.4143 18.1121 18.5144 18.4123C18.6144 18.7125 18.8146 18.9126 19.0147 19.2128C19.1148 19.3129 19.2148 19.413 19.415 19.5131C19.515 19.6131 19.6151 19.6131 19.6151 19.7132C19.7152 19.7132 19.8152 19.8133 19.9153 19.8133C19.9153 19.7132 20.0154 19.6131 20.0154 19.5131C20.0154 19.413 20.0154 19.3129 20.0154 19.2128C20.0154 19.0127 20.0154 18.9126 20.0154 18.7125C20.0154 18.4123 19.9153 18.1121 19.8152 17.8119C19.7152 17.5117 19.6151 17.3116 19.3149 17.0114Z" fill="#0796D6"/>
<path d="M21.0164 15.1101C20.9164 15.2102 20.9164 15.3103 20.9164 15.4103C20.9164 15.5104 20.8163 15.6105 20.8163 15.7105C20.7162 15.9107 20.7162 16.0107 20.7162 16.2109C20.7162 16.5111 20.7162 16.8113 20.8163 17.1115C20.9164 17.4117 21.0164 17.7119 21.2166 18.0121C21.3166 18.1122 21.4167 18.3123 21.5168 18.4124C21.6168 18.5124 21.6169 18.5124 21.7169 18.6125C21.817 18.7126 21.9171 18.7126 21.9171 18.8126C22.0171 18.7126 22.0171 18.6125 22.0171 18.5124C22.0171 18.4124 22.1172 18.3123 22.1172 18.2122C22.2173 18.0121 22.2173 17.912 22.2173 17.7119C22.2173 17.4117 22.2173 17.1115 22.1172 16.8113C22.0171 16.5111 21.9171 16.2109 21.7169 15.9107C21.6169 15.8106 21.5168 15.6105 21.4167 15.5104C21.3166 15.4103 21.3166 15.4103 21.2166 15.3103C21.2166 15.2102 21.1165 15.1101 21.0164 15.1101Z" fill="#0796D6"/>
<path d="M16.2128 25.5172C16.3129 25.6173 16.513 25.7173 16.6131 25.8174C16.9133 25.9175 17.2135 26.0175 17.5137 26.1176C17.8139 26.1176 18.1141 26.1176 18.4143 26.1176C18.6144 26.1176 18.7145 26.0175 18.9146 26.0175C19.0147 26.0175 19.1148 25.9175 19.2148 25.9175C19.3149 25.9175 19.415 25.8174 19.515 25.7173C19.415 25.6173 19.415 25.5172 19.3149 25.5172C19.2148 25.4171 19.2148 25.4171 19.1148 25.317C19.0147 25.217 18.8146 25.1169 18.7145 25.0168C18.4143 24.9168 18.1141 24.8167 17.8139 24.7166C17.5137 24.7166 17.2135 24.7166 16.9133 24.7166C16.7131 24.7166 16.6131 24.8167 16.4129 24.8167C16.3129 24.8167 16.2128 24.9168 16.1127 24.9168C16.0126 24.9168 15.9126 25.0168 15.8125 25.1169C15.9126 25.217 15.9126 25.317 16.0126 25.317C16.0126 25.4171 16.1127 25.5172 16.2128 25.5172Z" fill="#0796D6"/>
<path d="M22.6171 16.3109C22.6171 16.411 22.7172 16.5111 22.7172 16.5111C22.8173 16.6111 22.8173 16.7112 22.9173 16.7112C23.0174 16.6111 23.1175 16.6111 23.1175 16.5111C23.2175 16.411 23.2175 16.411 23.3176 16.3109C23.4177 16.2109 23.5178 16.0107 23.5178 15.9106C23.6178 15.6104 23.7179 15.3102 23.7179 15.01C23.7179 14.7098 23.7179 14.4096 23.6178 14.1094C23.6178 13.9093 23.5178 13.8092 23.4177 13.6091C23.4177 13.509 23.3176 13.4089 23.3176 13.4089C23.2175 13.3089 23.2175 13.2088 23.1175 13.2088C23.0174 13.3089 22.9173 13.3089 22.9173 13.4089C22.8173 13.509 22.8173 13.509 22.7172 13.6091C22.6171 13.7092 22.5171 13.9093 22.5171 14.0094C22.417 14.3096 22.3169 14.6098 22.3169 14.91C22.3169 15.2102 22.3169 15.5104 22.417 15.8106C22.5171 15.9107 22.6171 16.1108 22.6171 16.3109Z" fill="#0796D6"/>
<path d="M20.3156 13.2088C20.4156 13.3089 20.5157 13.509 20.6158 13.6091C20.7158 13.7091 20.7158 13.7091 20.8159 13.8092C20.916 13.9093 20.916 13.9093 21.0161 14.0093C21.1161 13.9093 21.1161 13.8092 21.2162 13.7091C21.2162 13.6091 21.3163 13.509 21.3163 13.4089C21.4163 13.2088 21.4163 13.1087 21.4163 12.9086C21.5164 12.6084 21.5164 12.3082 21.4163 12.008C21.4163 11.7078 21.3163 11.4076 21.1161 11.1074C21.0161 11.0073 20.916 10.8072 20.8159 10.7071C20.7158 10.607 20.7158 10.607 20.6158 10.507C20.5157 10.4069 20.5157 10.4069 20.4156 10.3068C20.3156 10.4069 20.3156 10.507 20.2155 10.607C20.2155 10.7071 20.1154 10.8072 20.1154 10.9072C20.0154 11.1074 20.0154 11.2074 20.0154 11.4076C19.9153 11.7078 19.9153 12.008 20.0154 12.3082C20.0154 12.6084 20.1154 12.9086 20.3156 13.2088Z" fill="#0796D6"/>
<path d="M12.6107 22.5151C12.8109 22.5151 12.9109 22.5151 13.1111 22.5151C13.2111 22.5151 13.3112 22.5151 13.4113 22.4151C13.5113 22.4151 13.6114 22.315 13.7115 22.315C13.7115 22.2149 13.6114 22.1149 13.6114 22.0148C13.5113 21.9147 13.5113 21.8147 13.4113 21.8147C13.3112 21.7146 13.2111 21.5145 13.011 21.4144C12.7108 21.2143 12.5107 21.0141 12.2105 20.9141C11.9102 20.814 11.61 20.7139 11.3098 20.7139C11.1097 20.7139 11.0096 20.7139 10.8095 20.7139C10.7094 20.7139 10.6094 20.7139 10.5093 20.814C10.4092 20.814 10.3092 20.9141 10.2091 20.9141C10.2091 21.0141 10.3092 21.1142 10.3092 21.2143C10.4092 21.3143 10.4092 21.4144 10.5093 21.4144C10.6094 21.5145 10.7094 21.7146 10.9096 21.8147C11.2098 22.0148 11.4099 22.2149 11.7101 22.315C11.9102 22.4151 12.2105 22.5151 12.6107 22.5151Z" fill="#0796D6"/>
<path d="M15.6126 24.1162C15.9128 24.2162 16.213 24.3163 16.5132 24.3163C16.7133 24.3163 16.8134 24.3163 17.0135 24.3163C17.1136 24.3163 17.2137 24.3163 17.3137 24.2162C17.4138 24.2162 17.5139 24.1162 17.6139 24.1162C17.6139 24.0161 17.5139 23.916 17.4138 23.816C17.3137 23.7159 17.3137 23.6158 17.2137 23.6158C17.1136 23.5157 17.0135 23.3156 16.8134 23.2155C16.5132 23.0154 16.313 22.8153 16.0128 22.7152C15.7126 22.6151 15.4124 22.5151 15.1122 22.5151C14.9121 22.5151 14.812 22.5151 14.6119 22.5151C14.5118 22.5151 14.4118 22.5151 14.3117 22.6151C14.2116 22.6151 14.1116 22.7152 14.0115 22.7152C14.0115 22.8153 14.1116 22.9153 14.2116 23.0154C14.3117 23.1155 14.3117 23.2155 14.4118 23.2155C14.5118 23.3156 14.6119 23.5157 14.812 23.6158C15.1122 23.816 15.4124 24.0161 15.6126 24.1162Z" fill="#0796D6"/>
<path d="M17.5139 19.2129C17.5139 19.313 17.5139 19.413 17.5139 19.5131C17.5139 19.6132 17.5139 19.7132 17.5139 19.8133C17.5139 20.0134 17.6139 20.1135 17.6139 20.3136C17.714 20.6138 17.9141 20.9141 18.1143 21.1142C18.3144 21.3143 18.5145 21.5145 18.8147 21.7146C18.9148 21.8147 19.115 21.9147 19.3151 21.9147C19.4152 21.9147 19.5152 22.0148 19.6153 22.0148C19.7154 22.0148 19.8154 22.0148 19.9155 22.0148C19.9155 21.9147 19.9155 21.8147 19.9155 21.7146C19.9155 21.6145 19.9155 21.5145 19.9155 21.4144C19.9155 21.2143 19.8154 21.1142 19.8154 20.9141C19.7154 20.6138 19.5152 20.3136 19.3151 20.1135C19.115 19.9134 18.9148 19.7132 18.6146 19.5131C18.5145 19.413 18.3144 19.313 18.1143 19.313C18.0142 19.313 17.9141 19.2129 17.8141 19.2129C17.714 19.2129 17.714 19.2129 17.5139 19.2129Z" fill="#0796D6"/>
<path d="M11.4097 24.1162C11.5098 24.2163 11.7099 24.3163 11.81 24.4164C12.1102 24.6165 12.4104 24.7166 12.7106 24.8167C13.0108 24.9167 13.311 24.9167 13.6112 24.9167C13.8113 24.9167 13.9114 24.9167 14.1116 24.8167C14.2116 24.8167 14.3117 24.7166 14.4118 24.7166C14.5118 24.7166 14.6119 24.6165 14.712 24.6165C14.6119 24.5165 14.6119 24.4164 14.5118 24.4164C14.4118 24.3163 14.4118 24.3163 14.3117 24.2163C14.2116 24.1162 14.0115 24.0161 13.9114 23.916C13.6112 23.7159 13.311 23.6158 13.0108 23.5158C12.7106 23.4157 12.4104 23.4157 12.1102 23.4157C11.9101 23.4157 11.81 23.4157 11.6098 23.5158C11.5098 23.5158 11.4097 23.6158 11.3096 23.6158C11.2096 23.6158 11.1095 23.7159 11.0094 23.7159C11.1095 23.816 11.1095 23.916 11.2096 23.916C11.3096 24.0161 11.4097 24.1162 11.4097 24.1162Z" fill="#0796D6"/>
<path d="M18.5147 15.3102C18.6148 15.6104 18.8149 15.8106 19.0151 16.1108C19.1151 16.2108 19.2152 16.3109 19.4154 16.411C19.5154 16.511 19.6155 16.511 19.6155 16.511C19.7156 16.511 19.8156 16.6111 19.9157 16.6111C19.9157 16.511 20.0158 16.411 20.0158 16.3109C20.0158 16.2108 20.0158 16.1108 20.0158 16.0107C20.0158 15.8106 20.0158 15.7105 20.0158 15.5104C20.0158 15.2101 19.9157 14.9099 19.7156 14.6097C19.6155 14.3095 19.4154 14.1094 19.2152 13.8092C19.1151 13.7091 19.0151 13.6091 18.8149 13.509C18.7149 13.4089 18.6148 13.4089 18.6148 13.4089C18.5147 13.4089 18.4147 13.3089 18.3146 13.3089C18.3146 13.4089 18.2145 13.509 18.2145 13.6091C18.2145 13.7091 18.2145 13.8092 18.2145 13.9093C18.2145 14.1094 18.2145 14.2095 18.2145 14.4096C18.3146 14.7098 18.4147 15.01 18.5147 15.3102Z" fill="#0796D6"/>
<path d="M58.3397 18.9128C57.8393 20.5139 57.6392 22.4152 57.6392 24.6167C57.6392 25.1171 57.6392 25.6174 57.6392 26.2178C57.6392 26.8182 57.7393 27.3186 57.7393 27.919C57.9394 29.2198 58.2396 30.3206 58.74 31.4213C59.2403 32.5221 60.1409 33.0224 61.3417 33.1225H61.4418C61.4418 33.1225 61.4418 33.1225 61.5419 33.1225C62.8427 33.1225 63.7434 32.6222 64.3438 31.6215C64.8441 30.6208 65.2444 29.5201 65.3444 28.2192C65.4445 27.7188 65.4445 27.2185 65.4445 26.7181C65.4445 26.2178 65.4445 25.8175 65.4445 25.3172V23.9162C65.4445 23.516 65.4445 23.0156 65.4445 22.5153C65.4445 22.0149 65.3444 21.4145 65.2444 20.9142C65.0442 19.9135 64.744 18.9128 64.1436 18.0122C63.6433 17.1116 62.7427 16.6113 61.5419 16.5112C59.8407 16.6113 58.7399 17.3117 58.3397 18.9128ZM66.0449 17.8121C66.7454 19.5132 67.1457 21.7147 67.1457 24.6167C67.1457 25.1171 67.1457 25.7175 67.1457 26.4179C67.1457 27.0184 67.0456 27.7188 67.0456 28.3192C66.8455 29.8203 66.3451 31.2212 65.6446 32.5221C64.8441 33.823 63.5432 34.4234 61.5419 34.4234C59.6406 34.4234 58.3397 33.7229 57.6392 32.422C56.9387 31.1211 56.5385 29.6201 56.3383 28.019C56.0381 27.4186 56.0381 26.8182 56.0381 26.2178C56.0381 25.6174 56.0381 25.017 56.0381 24.5166C56.0381 24.4166 56.0381 24.3165 56.0381 24.2164C56.0381 24.1164 56.0381 24.0163 56.0381 23.9162C56.0381 23.8162 56.0381 23.7161 56.0381 23.516C56.0381 23.4159 56.0381 23.2158 56.0381 23.1157C56.0381 22.7154 56.0381 22.2151 56.0381 21.7147C56.0381 21.2144 56.1382 20.7141 56.2382 20.2137C56.4384 19.0129 56.9387 17.8121 57.7393 16.8114C58.5398 15.8107 59.8407 15.2103 61.6419 15.1103C63.8434 15.3104 65.3444 16.211 66.0449 17.8121Z" fill="#0796D6"/>
<path d="M70.8482 15.4105H73.0497L77.0524 24.3166L79.7542 31.4214V15.4105H81.5555V34.1232H79.5541L72.6494 18.0123V34.1232H70.8482V15.4105Z" fill="#0796D6"/>
<path d="M94.2641 15.4105V17.2117H87.5595V23.3159H93.5636V25.017H87.5595V32.322H94.2641V34.0232H85.5582V15.4105H94.2641Z" fill="#0796D6"/>
<path d="M98.0667 28.6194C98.2668 30.1204 98.6671 31.1211 99.2675 31.8216C99.8679 32.5221 100.668 32.9223 101.769 32.9223C101.869 32.9223 101.969 32.9223 102.069 32.9223C102.169 32.9223 102.27 32.9223 102.37 32.9223C103.07 32.8223 103.771 32.422 104.371 31.8216C104.971 31.2212 105.272 30.3206 105.272 29.2198V28.5193C105.172 27.7188 104.871 27.2185 104.271 26.8182C103.671 26.4179 102.97 26.0176 102.169 25.7174C101.969 25.6174 101.869 25.6174 101.669 25.5173C101.469 25.4172 101.269 25.3172 101.169 25.3172C100.068 24.9169 99.1674 24.3165 98.2668 23.5159C97.3662 22.8155 96.9659 21.6147 96.9659 20.0136C96.9659 19.9135 96.9659 19.9135 96.9659 19.8134C96.9659 19.7134 96.9659 19.6133 96.9659 19.6133V19.5132C96.9659 19.5132 96.9659 19.5132 96.9659 19.4132C96.9659 19.3131 96.9659 19.3131 96.9659 19.213C96.9659 19.113 96.9659 19.113 96.9659 19.0129C97.066 17.8121 97.5664 16.8114 98.467 16.211C99.3676 15.6106 100.368 15.3104 101.369 15.2103H101.669C101.769 15.2103 101.869 15.2103 101.969 15.2103C103.07 15.3104 104.171 15.7106 105.071 16.5112C105.972 17.3117 106.472 18.3124 106.572 19.7134H104.771C104.771 18.8127 104.471 18.1123 103.871 17.5119C103.27 16.9115 102.57 16.5112 101.769 16.4111C101.669 16.4111 101.569 16.4111 101.569 16.4111C101.469 16.4111 101.369 16.4111 101.369 16.4111C100.668 16.4111 100.068 16.6112 99.5677 17.1116C98.9673 17.6119 98.6671 18.4125 98.567 19.5132V19.6133V19.7134C98.567 19.8134 98.567 19.8134 98.567 19.9135V20.0136C98.567 21.2144 98.9673 22.115 99.7678 22.6153C100.568 23.1157 101.469 23.616 102.47 24.0163C102.57 24.0163 102.57 24.1164 102.67 24.1164C102.77 24.1164 102.77 24.1164 102.87 24.2164C103.871 24.6167 104.871 25.117 105.772 25.8175C106.673 26.4179 107.073 27.4186 107.173 28.9196V29.0197C107.173 30.7208 106.673 32.1218 105.572 33.0224C104.471 33.923 103.37 34.4234 102.069 34.5234H101.869H101.669C100.368 34.5234 99.1674 34.0231 98.1668 33.1225C97.066 32.2219 96.5657 30.8209 96.5657 28.9196V28.8196C96.5657 28.8196 96.5657 28.8196 96.5657 28.7195V28.6194V28.5193L98.0667 28.6194Z" fill="#0796D6"/>
<path d="M119.281 15.4105V17.2117H114.978V34.1232H113.177V17.2117H108.874V15.4105H119.281Z" fill="#0796D6"/>
<path d="M124.084 18.9129C123.584 20.514 123.384 22.4152 123.384 24.6167C123.384 25.1171 123.384 25.6174 123.384 26.2178C123.384 26.8182 123.484 27.3186 123.484 27.919C123.684 29.2199 123.984 30.3206 124.485 31.4214C124.985 32.5221 125.886 33.0225 127.086 33.1225H127.186C127.186 33.1225 127.186 33.1225 127.287 33.1225C128.587 33.1225 129.488 32.6222 130.088 31.6215C130.589 30.6208 130.989 29.5201 131.089 28.2192C131.189 27.7189 131.189 27.2185 131.189 26.7182C131.189 26.2178 131.189 25.8176 131.189 25.3172V23.9163C131.189 23.516 131.189 23.0157 131.189 22.5153C131.189 22.015 131.089 21.4146 130.989 20.9142C130.789 19.9135 130.489 18.9129 129.888 18.0123C129.388 17.1116 128.487 16.6113 127.287 16.5112C125.685 16.6113 124.585 17.3118 124.084 18.9129ZM131.89 17.8121C132.59 19.5133 132.99 21.7148 132.99 24.6167C132.99 25.1171 132.99 25.7175 132.99 26.418C132.99 27.0184 132.89 27.7189 132.89 28.3193C132.69 29.8203 132.19 31.2212 131.489 32.5221C130.689 33.823 129.388 34.4234 127.387 34.4234C125.485 34.4234 124.184 33.7229 123.484 32.4221C122.784 31.1212 122.383 29.6201 122.183 28.0191C122.083 27.4186 122.083 26.7182 122.083 26.1178C122.083 25.5174 122.083 24.9169 122.083 24.4166C122.083 24.3165 122.083 24.2165 122.083 24.1164C122.083 24.0163 122.083 23.9163 122.083 23.8162C122.083 23.7161 122.083 23.6161 122.083 23.4159C122.083 23.3159 122.083 23.1157 122.083 23.0157C122.083 22.6154 122.083 22.115 122.083 21.6147C122.083 21.1144 122.183 20.614 122.283 20.1137C122.483 18.9129 122.984 17.712 123.784 16.7114C124.585 15.7107 125.886 15.1103 127.687 15.0102C129.688 15.3104 131.089 16.211 131.89 17.8121Z" fill="#0796D6"/>
<path d="M138.794 24.1164H141.596C142.797 24.1164 143.698 23.7162 144.298 23.0157C144.899 22.3152 145.299 21.5147 145.299 20.614V20.514V20.4139V20.3138V20.2138C145.199 19.4132 144.899 18.6127 144.298 17.9122C143.698 17.2117 142.797 16.9115 141.696 16.9115H138.694V24.1164H138.794ZM141.396 15.4105C143.398 15.4105 144.798 15.9108 145.699 16.9115C146.6 17.9122 147 19.013 147 20.1137V20.4139C147 20.514 147 20.614 147 20.614C146.9 21.9149 146.299 23.0157 145.299 24.1164C144.298 25.1171 142.897 25.7175 141.196 25.7175H138.794V34.1232H137.093V15.4105H141.396Z" fill="#0796D6"/>
<path d="M55.9384 39.8271H62.1427L67.046 54.6372L66.2454 39.8271H72.2495V65.3445H65.9452L61.0419 51.1348L61.8424 65.3445H55.9384V39.8271Z" fill="#103977"/>
<path d="M85.3588 60.4412C86.0593 60.141 86.4596 59.4405 86.4596 58.2397V46.5317C86.4596 45.531 86.1594 44.9306 85.559 44.6304C84.9586 44.3302 84.2581 44.1301 83.5576 44.1301H83.0573H82.657V60.9415C83.7577 60.8414 84.6584 60.7414 85.3588 60.4412ZM76.3527 39.8271H83.4575C86.8599 39.8271 89.1614 40.2274 90.5624 40.9279C91.9633 41.7284 92.6638 43.2294 92.6638 45.6311V59.1403C92.6638 61.0416 92.0634 62.5426 90.8626 63.6433C89.6618 64.7441 87.6604 65.3445 84.8585 65.3445H76.4528V39.8271H76.3527Z" fill="#103977"/>
<path d="M100.269 44.9306H95.4653V39.8271H111.076V44.9306H106.573V65.4446H100.269V44.9306Z" fill="#103977"/>
</svg>
